<?xml version="1.0" encoding="UTF-8"?>
<svg version="1.1" xmlns="http://www.w3.org/2000/svg" width="150" height="230">
<path d="M0 0 C49.5 0 99 0 150 0 C148.50784452 2.98431096 147.3992191 4.9220327 145.34765625 7.3984375 C144.82429687 8.03523437 144.3009375 8.67203125 143.76171875 9.328125 C143.20097656 10.00359375 142.64023438 10.6790625 142.0625 11.375 C140.87535508 12.81953475 139.68917258 14.26486093 138.50390625 15.7109375 C137.91109863 16.4337793 137.31829102 17.15662109 136.70751953 17.90136719 C134.26500513 20.90334799 131.8787527 23.94741474 129.5 27 C123.44499228 34.75727313 117.225316 42.37918391 111 50 C107.03099698 49.42807078 104.39760943 48.23586297 101.05078125 46.05078125 C99.65375977 45.14875977 99.65375977 45.14875977 98.22851562 44.22851562 C97.26623047 43.59623047 96.30394531 42.96394531 95.3125 42.3125 C92.47600604 40.46868198 89.63731244 38.62872958 86.79150391 36.79931641 C84.91944104 35.59264303 83.05713343 34.37070861 81.20458984 33.13427734 C80.32625488 32.56789551 79.44791992 32.00151367 78.54296875 31.41796875 C77.76332764 30.90387451 76.98368652 30.38978027 76.18041992 29.86010742 C74.05802728 28.73529294 74.05802728 28.73529294 72.17237854 29.72711182 C54.72551189 39.94996662 45.51571185 54.19824838 40.32199669 73.36153793 C38.0672861 82.03874792 36.00993852 90.75229446 34.0372963 99.49752808 C32.70909406 105.30090657 31.28647538 111.0809661 29.86987305 116.86328125 C27.88126737 125.00947819 25.91771487 133.16079404 23.99029446 141.3216877 C19.67586668 159.57595884 14.93022942 177.704351 10.0670166 195.81887817 C8.82821267 200.43502464 7.60289742 205.0546694 6.38183594 209.67553711 C6.19399505 210.38637231 6.00615416 211.09720751 5.81262112 211.82958317 C5.45046429 213.20030681 5.08834618 214.57104068 4.72627068 215.94178581 C3.48743876 220.62871984 2.24340153 225.31427659 1 230 C0.67 230 0.34 230 0 230 C0 154.1 0 78.2 0 0 Z " fill="#06BCF1" transform="translate(0,0)"/>
<path d="M0 0 C39.6 0 79.2 0 120 0 C118.50784452 2.98431096 117.3992191 4.9220327 115.34765625 7.3984375 C114.82429688 8.03523437 114.3009375 8.67203125 113.76171875 9.328125 C113.20097656 10.00359375 112.64023438 10.6790625 112.0625 11.375 C110.87535508 12.81953475 109.68917258 14.26486093 108.50390625 15.7109375 C107.91109863 16.4337793 107.31829102 17.15662109 106.70751953 17.90136719 C104.26500513 20.90334799 101.8787527 23.94741474 99.5 27 C93.44499228 34.75727313 87.225316 42.37918391 81 50 C77.25275594 49.43414514 74.70670841 48.43653885 71.54296875 46.3671875 C70.69041504 45.81619385 69.83786133 45.2652002 68.95947266 44.69750977 C68.04472168 44.09608154 67.1299707 43.49465332 66.1875 42.875 C64.19986066 41.58885118 62.21155642 40.30372945 60.22265625 39.01953125 C59.19543457 38.3538916 58.16821289 37.68825195 57.10986328 37.00244141 C52.14585742 33.80611733 47.1365088 30.68361972 42.125 27.5625 C40.65027222 26.64223022 40.65027222 26.64223022 39.14575195 25.70336914 C36.09772348 23.80135381 33.04893569 21.90056067 30 20 C25.62428447 17.27197842 21.24942615 14.54258852 16.875 11.8125 C15.37283936 10.87676147 15.37283936 10.87676147 13.84033203 9.92211914 C3.4955903 3.46574467 3.4955903 3.46574467 0 1 C0 0.67 0 0.34 0 0 Z " fill="#0696F1" transform="translate(30,0)"/>
<path d="M0 0 C1.37871576 4.13614727 0.11848652 7.29995834 -0.97167969 11.37768555 C-1.19496382 12.23917583 -1.41824795 13.10066612 -1.64829826 13.98826218 C-2.3982133 16.87321729 -3.16003492 19.75489174 -3.921875 22.63671875 C-4.45565162 24.67999663 -4.98870783 26.72346283 -5.52108765 28.7671051 C-6.95682982 34.2697971 -8.40290575 39.76972535 -9.8509903 45.2691803 C-11.34513399 50.95038796 -12.82994572 56.63403354 -14.31591797 62.31738281 C-17.58639171 74.81772651 -20.87125727 87.31426065 -24.16035461 99.80971527 C-25.22497414 103.8548032 -26.28878704 107.90010302 -27.3526001 111.9454031 C-32.88160428 132.96893536 -38.42840479 153.98771349 -44 175 C-44.33 175 -44.66 175 -45 175 C-46.06705014 158.83233448 -46.85179676 142.67654292 -47.33154774 126.48186207 C-47.56062308 118.95460719 -47.87128474 111.44975162 -48.39477539 103.93676758 C-52.00360994 51.1245173 -52.00360994 51.1245173 -36.26044571 32.40808785 C-25.55543719 20.18076332 -13.03056891 9.65699312 0 0 Z " fill="#06EEF1" transform="translate(45,55)"/>
</svg>
